<svg width="41" height="15" viewBox="0 0 41 15" fill="none" xmlns="http://www.w3.org/2000/svg">
<path d="M4.21592 14.5454V-8.96454e-05H5.14774V14.5454H4.21592ZM6.68751 4.80105C6.64206 4.34271 6.44698 3.98665 6.10228 3.73287C5.75759 3.47908 5.28978 3.35218 4.69887 3.35218C4.29736 3.35218 3.95834 3.409 3.68183 3.52264C3.40531 3.63249 3.19319 3.7859 3.04547 3.98287C2.90153 4.17984 2.82956 4.40332 2.82956 4.65332C2.82198 4.86165 2.86554 5.04347 2.96024 5.19877C3.05872 5.35408 3.19319 5.48855 3.36365 5.60218C3.5341 5.71203 3.73107 5.80862 3.95456 5.89196C4.17804 5.9715 4.41668 6.03968 4.67047 6.0965L5.71592 6.3465C6.2235 6.46014 6.68941 6.61165 7.11365 6.80105C7.53789 6.99044 7.90531 7.2234 8.21592 7.49991C8.52653 7.77643 8.76706 8.10218 8.93751 8.47718C9.11175 8.85218 9.20077 9.28211 9.20456 9.76696C9.20077 10.4791 9.01895 11.0965 8.6591 11.6192C8.30304 12.1382 7.78789 12.5416 7.11365 12.8295C6.44319 13.1135 5.63448 13.2556 4.68751 13.2556C3.74812 13.2556 2.92994 13.1117 2.23297 12.8238C1.53978 12.5359 0.998117 12.1098 0.607966 11.5454C0.221602 10.9772 0.0189505 10.2745 1.10865e-05 9.43741H2.38069C2.40721 9.82756 2.51895 10.1533 2.71592 10.4147C2.91668 10.6723 3.18372 10.8673 3.51706 10.9999C3.85418 11.1287 4.23486 11.1931 4.6591 11.1931C5.07577 11.1931 5.43751 11.1325 5.74433 11.0113C6.05494 10.8901 6.29547 10.7215 6.46592 10.5056C6.63638 10.2897 6.7216 10.0416 6.7216 9.76127C6.7216 9.49991 6.64395 9.28021 6.48865 9.10218C6.33713 8.92415 6.11365 8.77264 5.81819 8.64764C5.52653 8.52264 5.16857 8.409 4.74433 8.30673L3.47728 7.98855C2.49622 7.74991 1.7216 7.3768 1.15342 6.86923C0.585238 6.36165 0.303041 5.67794 0.306829 4.81809C0.303041 4.11355 0.490541 3.49802 0.869329 2.9715C1.25191 2.44499 1.77653 2.034 2.44319 1.73855C3.10986 1.44309 3.86744 1.29537 4.71592 1.29537C5.57956 1.29537 6.33334 1.44309 6.97728 1.73855C7.62501 2.034 8.1288 2.44499 8.48865 2.9715C8.8485 3.49802 9.0341 4.10787 9.04547 4.80105H6.68751ZM10.7912 13.0908V11.3181L14.9332 7.48287C15.2855 7.14196 15.581 6.83514 15.8196 6.56241C16.062 6.28968 16.2457 6.02264 16.3707 5.76127C16.4957 5.49612 16.5582 5.21014 16.5582 4.90332C16.5582 4.56241 16.4806 4.26885 16.3253 4.02264C16.17 3.77264 15.9579 3.58135 15.6889 3.44877C15.42 3.31241 15.1151 3.24423 14.7742 3.24423C14.4181 3.24423 14.1075 3.3162 13.8423 3.46014C13.5772 3.60408 13.3726 3.81052 13.2287 4.07946C13.0848 4.3484 13.0128 4.66847 13.0128 5.03968H10.6776C10.6776 4.27832 10.8499 3.61734 11.1946 3.05673C11.5393 2.49612 12.0223 2.06241 12.6435 1.75559C13.2647 1.44877 13.9806 1.29537 14.7912 1.29537C15.6245 1.29537 16.3499 1.44309 16.9673 1.73855C17.5886 2.03021 18.0715 2.43552 18.4162 2.95446C18.7609 3.4734 18.9333 4.06809 18.9333 4.73855C18.9333 5.17794 18.8461 5.61165 18.6719 6.03968C18.5014 6.46771 18.1965 6.94309 17.7571 7.46582C17.3177 7.98476 16.6984 8.60787 15.8992 9.33514L14.2003 10.9999V11.0795H19.0867V13.0908H10.7912ZM25.2102 13.2499C24.3352 13.2499 23.5568 13.1079 22.875 12.8238C22.197 12.5359 21.6648 12.1439 21.2784 11.6476C20.8921 11.1514 20.6989 10.5889 20.6989 9.96014C20.6989 9.47529 20.8087 9.03021 21.0284 8.62491C21.2519 8.21582 21.5549 7.87681 21.9375 7.60787C22.3201 7.33514 22.7481 7.1609 23.2216 7.08514V7.00559C22.6004 6.88059 22.0966 6.57946 21.7102 6.10218C21.3239 5.62112 21.1307 5.06241 21.1307 4.42605C21.1307 3.82377 21.3068 3.28779 21.6591 2.81809C22.0114 2.34461 22.4943 1.9734 23.108 1.70446C23.7254 1.43173 24.4261 1.29537 25.2102 1.29537C25.9943 1.29537 26.6932 1.43173 27.3068 1.70446C27.9243 1.97718 28.4091 2.35029 28.7614 2.82377C29.1136 3.29347 29.2917 3.82756 29.2955 4.42605C29.2917 5.0662 29.0947 5.62491 28.7046 6.10218C28.3144 6.57946 27.8144 6.88059 27.2046 7.00559V7.08514C27.6705 7.1609 28.0928 7.33514 28.4716 7.60787C28.8542 7.87681 29.1572 8.21582 29.3807 8.62491C29.608 9.03021 29.7235 9.47529 29.7273 9.96014C29.7235 10.5889 29.5284 11.1514 29.1421 11.6476C28.7557 12.1439 28.2216 12.5359 27.5398 12.8238C26.8618 13.1079 26.0852 13.2499 25.2102 13.2499ZM25.2102 11.4431C25.6004 11.4431 25.9413 11.373 26.233 11.2329C26.5246 11.0889 26.7519 10.892 26.9148 10.642C27.0815 10.3882 27.1648 10.0965 27.1648 9.76696C27.1648 9.42984 27.0796 9.13249 26.9091 8.87491C26.7386 8.61355 26.5076 8.409 26.2159 8.26127C25.9243 8.10976 25.589 8.034 25.2102 8.034C24.8352 8.034 24.5 8.10976 24.2046 8.26127C23.9091 8.409 23.6761 8.61355 23.5057 8.87491C23.339 9.13249 23.2557 9.42984 23.2557 9.76696C23.2557 10.0965 23.3371 10.3882 23.5 10.642C23.6629 10.892 23.8921 11.0889 24.1875 11.2329C24.483 11.373 24.8239 11.4431 25.2102 11.4431ZM25.2102 6.24423C25.536 6.24423 25.8258 6.17794 26.0796 6.04537C26.3333 5.91279 26.5322 5.72908 26.6761 5.49423C26.8201 5.25938 26.8921 4.98855 26.8921 4.68173C26.8921 4.3787 26.8201 4.11355 26.6761 3.88627C26.5322 3.65521 26.3352 3.47529 26.0852 3.3465C25.8352 3.21393 25.5436 3.14764 25.2102 3.14764C24.8807 3.14764 24.589 3.21393 24.3352 3.3465C24.0815 3.47529 23.8826 3.65521 23.7386 3.88627C23.5985 4.11355 23.5284 4.3787 23.5284 4.68173C23.5284 4.98855 23.6004 5.25938 23.7443 5.49423C23.8883 5.72908 24.0871 5.91279 24.3409 6.04537C24.5947 6.17794 24.8845 6.24423 25.2102 6.24423ZM36.01 13.3465C35.0327 13.3427 34.1918 13.1022 33.4872 12.6249C32.7865 12.1476 32.2467 11.4564 31.8679 10.551C31.4929 9.64574 31.3073 8.55673 31.3111 7.284C31.3111 6.01506 31.4986 4.93362 31.8736 4.03968C32.2524 3.14574 32.7922 2.46582 33.4929 1.99991C34.1975 1.53021 35.0365 1.29537 36.01 1.29537C36.9834 1.29537 37.8206 1.53021 38.5213 1.99991C39.2259 2.46961 39.7675 3.15143 40.1463 4.04537C40.5251 4.93552 40.7126 6.01506 40.7088 7.284C40.7088 8.56052 40.5194 9.65143 40.1406 10.5567C39.7656 11.462 39.2278 12.1533 38.527 12.6306C37.8262 13.1079 36.9872 13.3465 36.01 13.3465ZM36.01 11.3067C36.6766 11.3067 37.2088 10.9715 37.6065 10.301C38.0043 9.63059 38.2012 8.62491 38.1975 7.284C38.1975 6.40143 38.1065 5.66658 37.9247 5.07946C37.7467 4.49234 37.4929 4.05105 37.1634 3.75559C36.8376 3.46014 36.4531 3.31241 36.01 3.31241C35.3471 3.31241 34.8168 3.64385 34.419 4.30673C34.0213 4.96961 33.8206 5.96203 33.8168 7.284C33.8168 8.17794 33.9058 8.92415 34.0838 9.52264C34.2656 10.1173 34.5213 10.5643 34.8509 10.8635C35.1804 11.159 35.5668 11.3067 36.01 11.3067Z" fill="black"/>
</svg>
