<svg width="104" height="16" viewBox="0 0 104 16" fill="none" xmlns="http://www.w3.org/2000/svg">
<path d="M0 12.0234V0.382812H3.98438C4.89062 0.382812 5.63672 0.548177 6.22266 0.878906C6.80859 1.20964 7.24349 1.65365 7.52734 2.21094C7.8112 2.76823 7.95312 3.39323 7.95312 4.08594C7.95312 4.77865 7.8112 5.40625 7.52734 5.96875C7.24349 6.53125 6.8099 6.97917 6.22656 7.3125C5.64323 7.64583 4.89844 7.8125 3.99219 7.8125H1.17188V6.50781H3.92188C4.53646 6.50781 5.03125 6.40234 5.40625 6.19141C5.78125 5.98047 6.05339 5.69141 6.22266 5.32422C6.39193 4.95703 6.47656 4.54427 6.47656 4.08594C6.47656 3.6276 6.39193 3.21745 6.22266 2.85547C6.05339 2.49349 5.77995 2.20833 5.40234 2C5.02474 1.79167 4.52604 1.6875 3.90625 1.6875H1.48438V12.0234H0ZM10.0469 12.0234V3.28906H11.4062V4.63281H11.5C11.6615 4.1901 11.9492 3.83464 12.3633 3.56641C12.7773 3.29818 13.2448 3.16406 13.7656 3.16406C13.8698 3.16406 13.9935 3.16667 14.1367 3.17188C14.2799 3.17708 14.3932 3.18229 14.4766 3.1875V4.60156C14.4349 4.59115 14.3307 4.57552 14.1641 4.55469C13.9974 4.53385 13.8203 4.52344 13.6328 4.52344C13.2161 4.52344 12.8424 4.61068 12.5117 4.78516C12.181 4.95964 11.9219 5.19922 11.7344 5.50391C11.5469 5.80859 11.4531 6.15885 11.4531 6.55469V12.0234H10.0469ZM16.2266 12.0234V3.28906H17.6328V12.0234H16.2266ZM16.9375 1.85938C16.6719 1.85938 16.4427 1.76823 16.25 1.58594C16.0573 1.40365 15.9609 1.1849 15.9609 0.929688C15.9609 0.669271 16.0573 0.449219 16.25 0.269531C16.4427 0.0898438 16.6719 0 16.9375 0C17.2083 0 17.4401 0.0898438 17.6328 0.269531C17.8255 0.449219 17.9219 0.669271 17.9219 0.929688C17.9219 1.1849 17.8255 1.40365 17.6328 1.58594C17.4401 1.76823 17.2083 1.85938 16.9375 1.85938ZM22.625 12.0234L19.2891 3.28906H20.8281L22.6875 8.46875C22.8854 9.00521 23.0534 9.54036 23.1914 10.0742C23.3294 10.6081 23.474 11.125 23.625 11.625H23.1094C23.2604 11.125 23.4049 10.6081 23.543 10.0742C23.681 9.54036 23.8464 9.00521 24.0391 8.46875L25.8984 3.28906H27.4375L24.1016 12.0234H22.625ZM31.4609 12.2266C30.9089 12.2266 30.4076 12.1224 29.957 11.9141C29.5065 11.7057 29.1484 11.401 28.8828 11C28.6172 10.599 28.4844 10.112 28.4844 9.53906C28.4844 9.03906 28.5833 8.63281 28.7812 8.32031C28.9792 8.00781 29.2435 7.76172 29.5742 7.58203C29.9049 7.40234 30.2708 7.26823 30.6719 7.17969C31.0729 7.09115 31.4766 7.02083 31.8828 6.96875C32.4036 6.90104 32.8281 6.84896 33.1562 6.8125C33.4844 6.77604 33.7279 6.71354 33.8867 6.625C34.0456 6.53646 34.125 6.38542 34.125 6.17188V6.125C34.125 5.76042 34.0573 5.45182 33.9219 5.19922C33.7865 4.94661 33.5833 4.7526 33.3125 4.61719C33.0417 4.48177 32.7031 4.41406 32.2969 4.41406C31.8802 4.41406 31.5234 4.47917 31.2266 4.60938C30.9297 4.73958 30.6888 4.90234 30.5039 5.09766C30.319 5.29297 30.1797 5.49219 30.0859 5.69531L28.7344 5.25C28.9583 4.71875 29.2604 4.30339 29.6406 4.00391C30.0208 3.70443 30.4401 3.49219 30.8984 3.36719C31.3568 3.24219 31.8099 3.17969 32.2578 3.17969C32.5495 3.17969 32.8815 3.21484 33.2539 3.28516C33.6263 3.35547 33.9857 3.49479 34.332 3.70312C34.6784 3.91146 34.9648 4.22005 35.1914 4.62891C35.418 5.03776 35.5312 5.58333 35.5312 6.26562V12.0234H34.1484V10.8359H34.0547C33.9557 11.0391 33.7969 11.2487 33.5781 11.4648C33.3594 11.681 33.0755 11.862 32.7266 12.0078C32.3776 12.1536 31.9557 12.2266 31.4609 12.2266ZM31.7031 10.9844C32.224 10.9844 32.6641 10.8828 33.0234 10.6797C33.3828 10.4766 33.6562 10.2122 33.8438 9.88672C34.0312 9.5612 34.125 9.22135 34.125 8.86719V7.65625C34.0677 7.72396 33.9427 7.78516 33.75 7.83984C33.5573 7.89453 33.3372 7.94271 33.0898 7.98438C32.8424 8.02604 32.6029 8.0612 32.3711 8.08984C32.1393 8.11849 31.9557 8.14062 31.8203 8.15625C31.4818 8.19792 31.1654 8.26953 30.8711 8.37109C30.5768 8.47266 30.3411 8.62109 30.1641 8.81641C29.987 9.01172 29.8984 9.27604 29.8984 9.60938C29.8984 9.91146 29.9766 10.1641 30.1328 10.3672C30.2891 10.5703 30.5026 10.724 30.7734 10.8281C31.0443 10.9323 31.3542 10.9844 31.7031 10.9844ZM41.5547 12.2109C40.763 12.2109 40.069 12.0234 39.4727 11.6484C38.8763 11.2734 38.4115 10.7474 38.0781 10.0703C37.7448 9.39323 37.5781 8.60677 37.5781 7.71094C37.5781 6.79948 37.7448 6.00391 38.0781 5.32422C38.4115 4.64453 38.8763 4.11719 39.4727 3.74219C40.069 3.36719 40.763 3.17969 41.5547 3.17969C41.9766 3.17969 42.375 3.23438 42.75 3.34375C43.125 3.45312 43.4674 3.61068 43.7773 3.81641C44.0872 4.02214 44.3542 4.27474 44.5781 4.57422C44.8021 4.8737 44.974 5.21354 45.0938 5.59375L43.7422 5.97656C43.6797 5.7526 43.5833 5.54688 43.4531 5.35938C43.3229 5.17188 43.1654 5.00911 42.9805 4.87109C42.7956 4.73307 42.5833 4.6263 42.3438 4.55078C42.1042 4.47526 41.8411 4.4375 41.5547 4.4375C40.9714 4.4375 40.4922 4.58984 40.1172 4.89453C39.7422 5.19922 39.4635 5.59896 39.2812 6.09375C39.099 6.58854 39.0078 7.1276 39.0078 7.71094C39.0078 8.28385 39.099 8.81641 39.2812 9.30859C39.4635 9.80078 39.7422 10.1979 40.1172 10.5C40.4922 10.8021 40.9714 10.9531 41.5547 10.9531C41.8464 10.9531 42.1146 10.9141 42.3594 10.8359C42.6042 10.7578 42.8216 10.6471 43.0117 10.5039C43.2018 10.3607 43.362 10.1901 43.4922 9.99219C43.6224 9.79427 43.7188 9.57812 43.7812 9.34375L45.125 9.72656C45.0104 10.1172 44.8398 10.4648 44.6133 10.7695C44.3867 11.0742 44.1172 11.3346 43.8047 11.5508C43.4922 11.7669 43.1458 11.931 42.7656 12.043C42.3854 12.1549 41.9818 12.2109 41.5547 12.2109ZM46.6875 15.1875L47.0469 13.9688L47.1953 14.0078C47.4818 14.0807 47.7422 14.1003 47.9766 14.0664C48.2109 14.0326 48.4219 13.9167 48.6094 13.7188C48.7969 13.5208 48.9609 13.2135 49.1016 12.7969L49.3516 12.0703L46.0156 3.28906H47.5547L49.4141 8.46875C49.612 9.01042 49.7786 9.54688 49.9141 10.0781C50.0495 10.6094 50.1927 11.125 50.3438 11.625H49.8281C49.9792 11.125 50.1237 10.6081 50.2617 10.0742C50.3997 9.54036 50.5651 9.00521 50.7578 8.46875L52.6328 3.28906H54.1641L50.3281 13.3281C50.151 13.7917 49.9388 14.1732 49.6914 14.4727C49.444 14.7721 49.1562 14.9935 48.8281 15.1367C48.5 15.2799 48.1302 15.3516 47.7188 15.3516C47.4688 15.3516 47.2526 15.3333 47.0703 15.2969C46.888 15.2604 46.7604 15.224 46.6875 15.1875ZM60.4922 12.0234V0.382812H64.4766C65.3828 0.382812 66.1289 0.548177 66.7148 0.878906C67.3008 1.20964 67.7357 1.65365 68.0195 2.21094C68.3034 2.76823 68.4453 3.39323 68.4453 4.08594C68.4453 4.77865 68.3034 5.40625 68.0195 5.96875C67.7357 6.53125 67.3021 6.97917 66.7188 7.3125C66.1354 7.64583 65.3906 7.8125 64.4844 7.8125H61.6641V6.50781H64.4141C65.0286 6.50781 65.5234 6.40234 65.8984 6.19141C66.2734 5.98047 66.5456 5.69141 66.7148 5.32422C66.8841 4.95703 66.9688 4.54427 66.9688 4.08594C66.9688 3.6276 66.8841 3.21745 66.7148 2.85547C66.5456 2.49349 66.2721 2.20833 65.8945 2C65.5169 1.79167 65.0182 1.6875 64.3984 1.6875H61.9766V12.0234H60.4922ZM74.0078 12.2109C73.2161 12.2109 72.5221 12.0234 71.9258 11.6484C71.3294 11.2734 70.8646 10.7474 70.5312 10.0703C70.1979 9.39323 70.0312 8.60677 70.0312 7.71094C70.0312 6.79948 70.1979 6.00391 70.5312 5.32422C70.8646 4.64453 71.3294 4.11719 71.9258 3.74219C72.5221 3.36719 73.2161 3.17969 74.0078 3.17969C74.8047 3.17969 75.5026 3.36719 76.1016 3.74219C76.7005 4.11719 77.1667 4.64453 77.5 5.32422C77.8333 6.00391 78 6.79948 78 7.71094C78 8.60677 77.8333 9.39323 77.5 10.0703C77.1667 10.7474 76.7005 11.2734 76.1016 11.6484C75.5026 12.0234 74.8047 12.2109 74.0078 12.2109ZM74.0078 10.9531C74.5964 10.9531 75.0807 10.8021 75.4609 10.5C75.8411 10.1979 76.1224 9.80078 76.3047 9.30859C76.487 8.81641 76.5781 8.28385 76.5781 7.71094C76.5781 7.13281 76.487 6.59505 76.3047 6.09766C76.1224 5.60026 75.8411 5.19922 75.4609 4.89453C75.0807 4.58984 74.5964 4.4375 74.0078 4.4375C73.4245 4.4375 72.9453 4.58984 72.5703 4.89453C72.1953 5.19922 71.9167 5.59896 71.7344 6.09375C71.5521 6.58854 71.4609 7.1276 71.4609 7.71094C71.4609 8.28385 71.5521 8.81641 71.7344 9.30859C71.9167 9.80078 72.1953 10.1979 72.5703 10.5C72.9453 10.8021 73.4245 10.9531 74.0078 10.9531ZM81.4531 0.382812V12.0234H80.0469V0.382812H81.4531ZM83.9219 12.0234V3.28906H85.3281V12.0234H83.9219ZM84.6328 1.85938C84.3672 1.85938 84.138 1.76823 83.9453 1.58594C83.7526 1.40365 83.6562 1.1849 83.6562 0.929688C83.6562 0.669271 83.7526 0.449219 83.9453 0.269531C84.138 0.0898438 84.3672 0 84.6328 0C84.9036 0 85.1354 0.0898438 85.3281 0.269531C85.5208 0.449219 85.6172 0.669271 85.6172 0.929688C85.6172 1.1849 85.5208 1.40365 85.3281 1.58594C85.1354 1.76823 84.9036 1.85938 84.6328 1.85938ZM91.3516 12.2109C90.5599 12.2109 89.8659 12.0234 89.2695 11.6484C88.6732 11.2734 88.2083 10.7474 87.875 10.0703C87.5417 9.39323 87.375 8.60677 87.375 7.71094C87.375 6.79948 87.5417 6.00391 87.875 5.32422C88.2083 4.64453 88.6732 4.11719 89.2695 3.74219C89.8659 3.36719 90.5599 3.17969 91.3516 3.17969C91.7734 3.17969 92.1719 3.23438 92.5469 3.34375C92.9219 3.45312 93.2643 3.61068 93.5742 3.81641C93.8841 4.02214 94.151 4.27474 94.375 4.57422C94.599 4.8737 94.7708 5.21354 94.8906 5.59375L93.5391 5.97656C93.4766 5.7526 93.3802 5.54688 93.25 5.35938C93.1198 5.17188 92.9622 5.00911 92.7773 4.87109C92.5924 4.73307 92.3802 4.6263 92.1406 4.55078C91.901 4.47526 91.638 4.4375 91.3516 4.4375C90.7682 4.4375 90.2891 4.58984 89.9141 4.89453C89.5391 5.19922 89.2604 5.59896 89.0781 6.09375C88.8958 6.58854 88.8047 7.1276 88.8047 7.71094C88.8047 8.28385 88.8958 8.81641 89.0781 9.30859C89.2604 9.80078 89.5391 10.1979 89.9141 10.5C90.2891 10.8021 90.7682 10.9531 91.3516 10.9531C91.6432 10.9531 91.9115 10.9141 92.1562 10.8359C92.401 10.7578 92.6185 10.6471 92.8086 10.5039C92.9987 10.3607 93.1589 10.1901 93.2891 9.99219C93.4193 9.79427 93.5156 9.57812 93.5781 9.34375L94.9219 9.72656C94.8073 10.1172 94.6367 10.4648 94.4102 10.7695C94.1836 11.0742 93.9141 11.3346 93.6016 11.5508C93.2891 11.7669 92.9427 11.931 92.5625 12.043C92.1823 12.1549 91.7786 12.2109 91.3516 12.2109ZM96.4844 15.1875L96.8438 13.9688L96.9922 14.0078C97.2786 14.0807 97.5391 14.1003 97.7734 14.0664C98.0078 14.0326 98.2188 13.9167 98.4062 13.7188C98.5938 13.5208 98.7578 13.2135 98.8984 12.7969L99.1484 12.0703L95.8125 3.28906H97.3516L99.2109 8.46875C99.4089 9.01042 99.5755 9.54688 99.7109 10.0781C99.8464 10.6094 99.9896 11.125 100.141 11.625H99.625C99.776 11.125 99.9206 10.6081 100.059 10.0742C100.197 9.54036 100.362 9.00521 100.555 8.46875L102.43 3.28906H103.961L100.125 13.3281C99.9479 13.7917 99.7357 14.1732 99.4883 14.4727C99.2409 14.7721 98.9531 14.9935 98.625 15.1367C98.2969 15.2799 97.9271 15.3516 97.5156 15.3516C97.2656 15.3516 97.0495 15.3333 96.8672 15.2969C96.6849 15.2604 96.5573 15.224 96.4844 15.1875Z" fill="#5C5F60"/>
</svg>
